<svg version="1.1" id="Layer_1" xmlns="http://www.w3.org/2000/svg" xmlns:xlink="http://www.w3.org/1999/xlink" x="0px" y="0px"
	 width="100%" viewBox="0 0 256 256" enable-background="new 0 0 256 256" xml:space="preserve">
<path fill="#FEFDFE" opacity="1.000000" stroke="none" 
	d="
M127.000000,257.000000 
	C84.666672,257.000000 42.833340,257.000000 1.000006,257.000000 
	C1.000004,171.666672 1.000004,86.333351 1.000002,1.000017 
	C86.333321,1.000011 171.666641,1.000011 257.000000,1.000006 
	C257.000000,86.333313 257.000000,171.666626 257.000000,256.999969 
	C213.833328,257.000000 170.666672,257.000000 127.000000,257.000000 
M116.106583,145.628738 
	C115.679565,144.485870 115.168045,142.334579 114.839111,142.362137 
	C112.532074,142.555466 109.888847,142.644073 108.089371,143.857742 
	C106.384666,145.007492 105.577301,147.487686 103.749176,150.369934 
	C101.628036,142.859085 96.896744,142.217941 90.668182,141.936707 
	C83.970444,141.634308 80.236534,144.036026 77.730553,150.273987 
	C76.200500,147.751724 75.554459,145.429718 74.050339,144.507996 
	C71.906975,143.194534 69.149757,142.536102 66.619751,142.429611 
	C65.936531,142.400848 64.577774,145.342224 64.478767,146.977768 
	C64.187729,151.785522 64.370445,156.622162 64.373848,161.447495 
	C64.378479,168.037323 64.859634,168.388184 72.014549,166.709747 
	C72.166977,163.447723 72.324638,160.073685 72.533371,155.606812 
	C76.800407,160.976624 79.947205,159.359833 83.036346,154.481430 
	C83.036346,157.918564 83.136414,160.243820 83.011353,162.556900 
	C82.850296,165.535645 83.078148,167.648758 87.097488,167.576508 
	C90.871559,167.508652 90.934097,165.495880 90.889725,162.749588 
	C90.795486,156.918121 90.860962,151.084076 90.860962,145.251099 
	C96.245354,151.850800 102.099060,157.860657 100.107933,167.156586 
	C103.066277,167.156586 105.289078,167.156586 108.025711,167.156586 
	C108.025711,164.628998 107.348274,162.186279 108.162300,160.438034 
	C110.038651,156.408340 112.639404,152.715973 115.595543,149.626511 
	C115.382881,151.765732 114.904617,153.918106 115.009743,156.041595 
	C115.274368,161.386948 118.972504,166.048950 123.871208,167.540573 
	C128.812668,169.045242 132.463074,167.005020 135.752533,163.255844 
	C134.451569,161.739532 133.298355,160.395401 132.145142,159.051285 
	C131.882294,159.582245 131.619431,160.113205 131.356583,160.644165 
	C128.718231,159.744812 125.697037,159.342041 123.607460,157.730957 
	C122.603554,156.956955 122.552353,152.756119 123.477516,152.103760 
	C125.769836,150.487411 128.872849,150.020798 131.650146,149.092270 
	C131.895294,149.571365 132.140442,150.050461 132.385574,150.529572 
	C133.372009,149.093918 134.358429,147.658264 135.699203,145.706894 
	C133.545929,144.421936 131.864182,143.024139 129.930008,142.339951 
	C124.673698,140.480606 120.756844,143.602325 116.106583,145.628738 
M97.726700,113.114288 
	C102.101189,114.849167 105.946365,113.963669 109.071976,110.525978 
	C112.610443,106.634232 115.987816,102.596024 118.850723,99.295387 
	C128.534332,104.374260 131.516830,111.099129 130.038406,119.928970 
	C129.903366,120.735512 130.003128,121.595200 130.082840,122.421623 
	C130.569839,127.471100 133.638031,130.393631 138.516418,130.488632 
	C143.061920,130.577179 146.575333,127.328972 147.022217,122.431084 
	C147.218216,120.282608 147.451370,118.032707 147.041199,115.952385 
	C145.494293,108.107132 150.835800,104.494331 156.319748,99.900414 
	C156.319748,107.184647 156.200577,113.663048 156.353256,120.135033 
	C156.506149,126.615906 159.871338,129.896729 166.360382,129.994507 
	C173.520370,130.102371 180.684570,130.120987 187.844131,130.005005 
	C193.724335,129.909744 197.540344,126.165314 197.474899,120.872627 
	C197.412552,115.829315 193.777924,112.612877 187.724823,112.455238 
	C183.277130,112.339409 178.824005,112.432526 174.281418,112.432526 
	C174.281418,106.036812 174.281418,100.188278 174.281418,94.128029 
	C177.026855,94.128029 179.345047,94.133095 181.663208,94.126617 
	C183.994690,94.120102 186.326935,94.136620 188.657425,94.081810 
	C193.253906,93.973694 196.200333,91.666924 197.226013,87.199913 
	C198.549088,81.437622 194.407440,76.409622 188.050323,76.283096 
	C178.561295,76.094246 169.058365,76.387482 159.578995,76.020180 
	C154.833618,75.836311 151.225891,77.223892 148.055374,80.644356 
	C144.830124,84.123871 141.338318,87.356339 137.915176,90.744568 
	C134.143723,87.175697 130.960983,83.998627 127.600792,81.021866 
	C122.183502,76.222755 117.332581,76.172157 112.192177,81.168449 
	C108.639740,84.621284 105.534164,88.533867 102.020485,92.474754 
	C96.378471,87.343277 91.747124,83.086388 87.064339,78.886848 
	C83.652893,75.827438 79.684929,74.978180 75.480888,76.809624 
	C71.471184,78.556404 70.252174,82.126015 70.254791,86.242874 
	C70.261986,97.568108 70.203156,108.893837 70.293510,120.218384 
	C70.346390,126.846237 73.760155,130.598907 79.294167,130.458694 
	C84.648308,130.323044 87.616913,126.788048 87.723022,120.236298 
	C87.802429,115.333031 87.738693,110.427444 87.738693,104.836540 
	C91.319801,107.898354 94.178352,110.342392 97.726700,113.114288 
M138.944168,162.437866 
	C143.831909,167.842865 148.292618,169.215500 153.869629,167.030670 
	C159.255630,164.920654 162.493317,159.937057 162.216782,154.182312 
	C161.953079,148.694733 158.389130,144.001755 153.072876,142.401993 
	C147.976501,140.868393 143.409195,142.120361 139.973526,146.072464 
	C135.826309,150.843063 135.645981,156.258224 138.944168,162.437866 
M187.085144,145.745590 
	C187.087097,151.730896 187.187607,157.718475 187.049377,163.700546 
	C186.980423,166.684204 188.005753,167.931442 191.096405,167.729141 
	C194.407806,167.512436 197.744171,167.703735 201.068802,167.656967 
	C206.347000,167.582733 206.788406,166.883072 205.062653,160.932190 
	C202.712952,160.932190 200.225739,161.088074 197.773987,160.861053 
	C196.681976,160.759949 195.661377,159.887711 194.608368,159.365479 
	C195.725250,158.729919 196.780304,157.759048 197.973801,157.538971 
	C199.680206,157.224304 201.487869,157.458817 203.114746,157.458817 
	C205.635773,147.834229 196.452499,153.762527 194.093536,149.053085 
	C197.846573,148.604263 201.173004,148.206467 204.691879,147.785660 
	C204.691879,145.816345 204.691879,144.089783 204.691879,141.904037 
	C199.463593,141.904037 194.502609,141.765030 189.563904,142.034271 
	C188.691544,142.081863 187.912094,143.833801 187.085144,145.745590 
M164.640533,152.559021 
	C164.640533,157.452393 164.640533,162.345749 164.640533,167.116669 
	C167.733688,167.116669 169.959976,167.116669 172.241272,167.116669 
	C172.498383,164.663513 172.715057,162.596100 172.946884,160.384247 
	C174.114822,160.306442 174.925705,160.246429 175.737350,160.199295 
	C182.439545,159.810120 185.398407,157.121490 185.382996,151.431091 
	C185.367111,145.566010 182.047989,142.431458 175.425034,142.203781 
	C171.997589,142.085968 168.562744,142.183060 164.640289,142.183060 
	C164.640289,145.680206 164.640289,148.635864 164.640533,152.559021 
z"/>
<path fill="#065EAE" opacity="1.000000" stroke="none" 
	d="
M97.381805,112.950363 
	C94.178352,110.342392 91.319801,107.898354 87.738693,104.836540 
	C87.738693,110.427444 87.802429,115.333031 87.723022,120.236298 
	C87.616913,126.788048 84.648308,130.323044 79.294167,130.458694 
	C73.760155,130.598907 70.346390,126.846237 70.293510,120.218384 
	C70.203156,108.893837 70.261986,97.568108 70.254791,86.242874 
	C70.252174,82.126015 71.471184,78.556404 75.480888,76.809624 
	C79.684929,74.978180 83.652893,75.827438 87.064339,78.886848 
	C91.747124,83.086388 96.378471,87.343277 102.020485,92.474754 
	C105.534164,88.533867 108.639740,84.621284 112.192177,81.168449 
	C117.332581,76.172157 122.183502,76.222755 127.600792,81.021866 
	C130.960983,83.998627 134.143723,87.175697 137.915176,90.744568 
	C141.338318,87.356339 144.830124,84.123871 148.055374,80.644356 
	C151.225891,77.223892 154.833618,75.836311 159.578995,76.020180 
	C169.058365,76.387482 178.561295,76.094246 188.050323,76.283096 
	C194.407440,76.409622 198.549088,81.437622 197.226013,87.199913 
	C196.200333,91.666924 193.253906,93.973694 188.657425,94.081810 
	C186.326935,94.136620 183.994690,94.120102 181.663208,94.126617 
	C179.345047,94.133095 177.026855,94.128029 174.281418,94.128029 
	C174.281418,100.188278 174.281418,106.036812 174.281418,112.432526 
	C178.824005,112.432526 183.277130,112.339409 187.724823,112.455238 
	C193.777924,112.612877 197.412552,115.829315 197.474899,120.872627 
	C197.540344,126.165314 193.724335,129.909744 187.844131,130.005005 
	C180.684570,130.120987 173.520370,130.102371 166.360382,129.994507 
	C159.871338,129.896729 156.506149,126.615906 156.353256,120.135033 
	C156.200577,113.663048 156.319748,107.184647 156.319748,99.900414 
	C150.835800,104.494331 145.494293,108.107132 147.041199,115.952385 
	C147.451370,118.032707 147.218216,120.282608 147.022217,122.431084 
	C146.575333,127.328972 143.061920,130.577179 138.516418,130.488632 
	C133.638031,130.393631 130.569839,127.471100 130.082840,122.421623 
	C130.003128,121.595200 129.903366,120.735512 130.038406,119.928970 
	C131.516830,111.099129 128.534332,104.374260 118.850723,99.295387 
	C115.987816,102.596024 112.610443,106.634232 109.071976,110.525978 
	C105.946365,113.963669 102.101189,114.849167 97.381805,112.950363 
z"/>
<path fill="#3C3531" opacity="1.000000" stroke="none" 
	d="
M114.946251,148.886734 
	C112.639404,152.715973 110.038651,156.408340 108.162300,160.438034 
	C107.348274,162.186279 108.025711,164.628998 108.025711,167.156586 
	C105.289078,167.156586 103.066277,167.156586 100.107933,167.156586 
	C102.099060,157.860657 96.245354,151.850800 90.860962,145.251099 
	C90.860962,151.084076 90.795486,156.918121 90.889725,162.749588 
	C90.934097,165.495880 90.871559,167.508652 87.097488,167.576508 
	C83.078148,167.648758 82.850296,165.535645 83.011353,162.556900 
	C83.136414,160.243820 83.036346,157.918564 83.036346,154.481430 
	C79.947205,159.359833 76.800407,160.976624 72.533371,155.606812 
	C72.324638,160.073685 72.166977,163.447723 72.014549,166.709747 
	C64.859634,168.388184 64.378479,168.037323 64.373848,161.447495 
	C64.370445,156.622162 64.187729,151.785522 64.478767,146.977768 
	C64.577774,145.342224 65.936531,142.400848 66.619751,142.429611 
	C69.149757,142.536102 71.906975,143.194534 74.050339,144.507996 
	C75.554459,145.429718 76.200500,147.751724 77.730553,150.273987 
	C80.236534,144.036026 83.970444,141.634308 90.668182,141.936707 
	C96.896744,142.217941 101.628036,142.859085 103.749176,150.369934 
	C105.577301,147.487686 106.384666,145.007492 108.089371,143.857742 
	C109.888847,142.644073 112.532074,142.555466 114.839111,142.362137 
	C115.168045,142.334579 115.679565,144.485870 116.493050,145.986694 
	C116.879517,146.344635 117.003403,146.415085 116.551666,146.177551 
	C115.708450,146.950882 115.316971,147.961746 114.961761,148.958740 
	C114.998024,148.944885 114.946251,148.886734 114.946251,148.886734 
z"/>
<path fill="#0E61AE" opacity="1.000000" stroke="none" 
	d="
M138.749146,162.124359 
	C135.645981,156.258224 135.826309,150.843063 139.973526,146.072464 
	C143.409195,142.120361 147.976501,140.868393 153.072876,142.401993 
	C158.389130,144.001755 161.953079,148.694733 162.216782,154.182312 
	C162.493317,159.937057 159.255630,164.920654 153.869629,167.030670 
	C148.292618,169.215500 143.831909,167.842865 138.749146,162.124359 
M153.657440,158.275055 
	C155.908813,155.113846 155.355301,151.958130 152.257492,150.252197 
	C150.643478,149.363358 147.396973,149.767502 145.805969,150.889496 
	C143.246109,152.694763 143.198181,155.751144 145.330429,158.286667 
	C147.642960,161.036575 150.332291,161.092834 153.657440,158.275055 
z"/>
<path fill="#1164AF" opacity="1.000000" stroke="none" 
	d="
M187.087433,145.272125 
	C187.912094,143.833801 188.691544,142.081863 189.563904,142.034271 
	C194.502609,141.765030 199.463593,141.904037 204.691879,141.904037 
	C204.691879,144.089783 204.691879,145.816345 204.691879,147.785660 
	C201.173004,148.206467 197.846573,148.604263 194.093536,149.053085 
	C196.452499,153.762527 205.635773,147.834229 203.114746,157.458817 
	C201.487869,157.458817 199.680206,157.224304 197.973801,157.538971 
	C196.780304,157.759048 195.725250,158.729919 194.608368,159.365479 
	C195.661377,159.887711 196.681976,160.759949 197.773987,160.861053 
	C200.225739,161.088074 202.712952,160.932190 205.062653,160.932190 
	C206.788406,166.883072 206.347000,167.582733 201.068802,167.656967 
	C197.744171,167.703735 194.407806,167.512436 191.096405,167.729141 
	C188.005753,167.931442 186.980423,166.684204 187.049377,163.700546 
	C187.187607,157.718475 187.087097,151.730896 187.087433,145.272125 
z"/>
<path fill="#0B60AE" opacity="1.000000" stroke="none" 
	d="
M164.640411,152.075272 
	C164.640289,148.635864 164.640289,145.680206 164.640289,142.183060 
	C168.562744,142.183060 171.997589,142.085968 175.425034,142.203781 
	C182.047989,142.431458 185.367111,145.566010 185.382996,151.431091 
	C185.398407,157.121490 182.439545,159.810120 175.737350,160.199295 
	C174.925705,160.246429 174.114822,160.306442 172.946884,160.384247 
	C172.715057,162.596100 172.498383,164.663513 172.241272,167.116669 
	C169.959976,167.116669 167.733688,167.116669 164.640533,167.116669 
	C164.640533,162.345749 164.640533,157.452393 164.640411,152.075272 
M173.622849,154.081787 
	C176.185593,154.230179 178.890701,153.894333 177.800064,150.564499 
	C177.387009,149.303391 174.516037,148.847336 171.479004,147.419540 
	C172.163788,150.793472 172.477936,152.341309 173.622849,154.081787 
z"/>
<path fill="#1063AE" opacity="1.000000" stroke="none" 
	d="
M117.003403,146.415085 
	C117.003403,146.415085 116.879517,146.344635 116.840469,146.343536 
	C120.756844,143.602325 124.673698,140.480606 129.930008,142.339951 
	C131.864182,143.024139 133.545929,144.421936 135.699203,145.706894 
	C134.358429,147.658264 133.372009,149.093918 132.385574,150.529572 
	C132.140442,150.050461 131.895294,149.571365 131.650146,149.092270 
	C128.872849,150.020798 125.769836,150.487411 123.477516,152.103760 
	C122.552353,152.756119 122.603554,156.956955 123.607460,157.730957 
	C125.697037,159.342041 128.718231,159.744812 131.356583,160.644165 
	C131.619431,160.113205 131.882294,159.582245 132.145142,159.051285 
	C133.298355,160.395401 134.451569,161.739532 135.752533,163.255844 
	C132.463074,167.005020 128.812668,169.045242 123.871208,167.540573 
	C118.972504,166.048950 115.274368,161.386948 115.009743,156.041595 
	C114.904617,153.918106 115.382881,151.765732 115.270897,149.256622 
	C114.946251,148.886734 114.998024,148.944885 115.341476,149.097504 
	C116.124428,148.305099 116.563911,147.360092 117.003403,146.415085 
z"/>
<path fill="#FEFDFE" opacity="1.000000" stroke="none" 
	d="
M116.551666,146.177551 
	C116.563911,147.360092 116.124428,148.305099 115.305222,149.111359 
	C115.316971,147.961746 115.708450,146.950882 116.551666,146.177551 
z"/>
<path fill="#ECF4F5" opacity="1.000000" stroke="none" 
	d="
M153.378662,158.563995 
	C150.332291,161.092834 147.642960,161.036575 145.330429,158.286667 
	C143.198181,155.751144 143.246109,152.694763 145.805969,150.889496 
	C147.396973,149.767502 150.643478,149.363358 152.257492,150.252197 
	C155.355301,151.958130 155.908813,155.113846 153.378662,158.563995 
z"/>
<path fill="#DEE9EF" opacity="1.000000" stroke="none" 
	d="
M173.207474,153.985458 
	C172.477936,152.341309 172.163788,150.793472 171.479004,147.419540 
	C174.516037,148.847336 177.387009,149.303391 177.800064,150.564499 
	C178.890701,153.894333 176.185593,154.230179 173.207474,153.985458 
z"/>
</svg>